<?xml version="1.0" encoding="utf-8"?>
<!-- Generator: Adobe Illustrator 19.0.0, SVG Export Plug-In . SVG Version: 6.00 Build 0)  -->
<svg version="1.1" id="Layer_1" xmlns="http://www.w3.org/2000/svg" xmlns:xlink="http://www.w3.org/1999/xlink" x="0px" y="0px"
	 viewBox="-43 113.1 42 30" style="enable-background:new -43 113.1 42 30;" xml:space="preserve">
<style type="text/css">
	.st0{fill:#3F51B5;}
	.st1{fill:#FFC107;}
	.st2{fill:#9FA8DA;}
</style>
<path class="st0" d="M-1,139.1c0,2.2-1.8,4-4,4h-34c-2.2,0-4-1.8-4-4v-22c0-2.2,1.8-4,4-4h34c2.2,0,4,1.8,4,4V139.1z"/>
<path class="st1" d="M-30,125.1c0,0.6-0.4,1-1,1h-5c-0.6,0-1-0.4-1-1v-4c0-0.6,0.4-1,1-1h5c0.6,0,1,0.4,1,1V125.1z M-31,130.1h-6v2
	h6V130.1z M-23,135.1h-14v2h14V135.1z M-23,130.1h-6v2h6V130.1z M-15,130.1h-6v2h6V130.1z M-7,130.1h-6v2h6V130.1z"/>
<rect x="-26" y="120.1" class="st2" width="19" height="4"/>
</svg>