<?xml version="1.0" encoding="utf-8"?>
<!-- Generator: Adobe Illustrator 22.1.0, SVG Export Plug-In . SVG Version: 6.00 Build 0)  -->
<svg version="1.1" id="Camada_1" xmlns="http://www.w3.org/2000/svg" xmlns:xlink="http://www.w3.org/1999/xlink" x="0px" y="0px"
	 viewBox="0 0 792 287" style="enable-background:new 0 0 792 287;" xml:space="preserve">
<style type="text/css">
	.st0{fill:#040006;}
	.st1{font-family:'MicrogrammaD-BoldExte';}
	.st2{font-size:56.09px;}
	.st3{clip-path:url(#SVGID_2_);}
	.st4{fill:#EBC13B;}
	.st5{font-size:185.81px;}
	.st6{font-family:'BlackJackRegular';}
	.st7{font-size:78.87px;}
	.st8{clip-path:url(#SVGID_4_);}
	.st9{fill:#C33D41;}
</style>
<title>mega_moveis_preto</title>
<text transform="matrix(1 0 0 1 52.22 71.27)" class="st0 st1 st2">r</text>
<text transform="matrix(1 0 0 1 86.16 71.27)" class="st0 st1 st2">ede</text>
<g>
	<defs>
		<rect id="SVGID_1_" width="792" height="287"/>
	</defs>
	<clipPath id="SVGID_2_">
		<use xlink:href="#SVGID_1_"  style="overflow:visible;"/>
	</clipPath>
	<g class="st3">
		<text transform="matrix(1 0 0 1 44.45 170)" class="st4 st1 st5">me</text>
		<text transform="matrix(1 0 0 1 379.27 170)" class="st4 st1 st5">g</text>
		<text transform="matrix(1 0 0 1 514.72 170)" class="st4 st1 st5">a</text>
	</g>
</g>
<text transform="matrix(1 0 0 1 529.48 211.24)" class="st0 st6 st7">móveis</text>
<g>
	<defs>
		<rect id="SVGID_3_" width="792" height="287"/>
	</defs>
	<clipPath id="SVGID_4_">
		<use xlink:href="#SVGID_3_"  style="overflow:visible;"/>
	</clipPath>
	<g class="st8">
		<path class="st9" d="M736.6,248.4c-37.2,8.3-75.2,12.6-113.3,12.6c-47,0-84-6.5-107.9-10.8c-36.8-6.7-44.5-11.1-104.2-23.5
			c-24.9-5.2-46-9.5-69.5-13.1c-60.7-9.2-107.9-8.6-156.6-7.7c-45.4,0.9-90.7,4-135.8,9.5c-0.3-2.9-0.6-5.7-0.9-8.6
			c54.3-5.7,100.6-7.6,135.8-8.1c51.2-0.8,94.7-1.2,151.6,6.8c26.6,3.7,49.5,8.4,74.9,13.5c59.3,12,65.3,16.4,104.7,23.5
			c29,5.2,65.1,11.6,111,11.3c36.2-0.2,72.2-4.5,107.4-12.6C734.8,243.6,735.7,246,736.6,248.4"/>
	</g>
</g>
</svg>
